PathFileType	4	(X/Y/Z)	/Users/itak/Documents/Research/Walk-IL/dataset/trc/00534_00009.trc
DataRate	CameraRate	NumFrames	NumMarkers	Units	OrigDataRate	OrigDataStartFrame	OrigNumFrames
100.000000	100.000000	4	54	mm	100.000000	312	624
Frame#	Time	RPSI			LPSI			L3			STRN			T10			C7			CLAV			RBAK			LBAK			LSHO			LUPA			LAEL			LAOL			LWTS			LWPS			LFRA			LHPS			LHTS			RSHO			RUPA			RAEL			RAOL			RWTS			RWPS			RFRA			RIFD			RHTS			RHPS			RBHD			LFHD			RFHD			LBHD			LHIP			RASI			LASI			LKNE			LTHI			LANK			LTIP			LTOE			LMT1			LMT5			LHEE			RKNE			RTHI			RANK			RTIP			RTOE			RMT1			RMT5			RHEE			RHIP			LIFD			*53			
		X1	Y1	Z1	X2	Y2	Z2	X3	Y3	Z3	X4	Y4	Z4	X5	Y5	Z5	X6	Y6	Z6	X7	Y7	Z7	X8	Y8	Z8	X9	Y9	Z9	X10	Y10	Z10	X11	Y11	Z11	X12	Y12	Z12	X13	Y13	Z13	X14	Y14	Z14	X15	Y15	Z15	X16	Y16	Z16	X17	Y17	Z17	X18	Y18	Z18	X19	Y19	Z19	X20	Y20	Z20	X21	Y21	Z21	X22	Y22	Z22	X23	Y23	Z23	X24	Y24	Z24	X25	Y25	Z25	X26	Y26	Z26	X27	Y27	Z27	X28	Y28	Z28	X29	Y29	Z29	X30	Y30	Z30	X31	Y31	Z31	X32	Y32	Z32	X33	Y33	Z33	X34	Y34	Z34	X35	Y35	Z35	X36	Y36	Z36	X37	Y37	Z37	X38	Y38	Z38	X39	Y39	Z39	X40	Y40	Z40	X41	Y41	Z41	X42	Y42	Z42	X43	Y43	Z43	X44	Y44	Z44	X45	Y45	Z45	X46	Y46	Z46	X47	Y47	Z47	X48	Y48	Z48	X49	Y49	Z49	X50	Y50	Z50	X51	Y51	Z51	X52	Y52	Z52	X53	Y53	Z53	X54	Y54	Z54	

313	3.12	-475.5506896972656	986.3258056640625	-76.82288360595703	-440.3190002441406	984.572265625	-204.7929229736328	-457.755126953125	1083.558349609375	-139.3896026611328	-223.7339324951172	1265.025024414062	-84.96901702880859	-462.4185791015625	1210.052856445312	-140.2092437744141	-410.9800109863281	1481.380737304688	-109.6343612670898	-239.3235168457031	1376.7998046875	-89.23343658447266	-502.3114624023438	1358.745971679688	-40.76690673828125	-428.8800659179688	1429.323364257812	-204.6969909667969	-317.6813354492188	1452.521850585938	-267.6052551269531	-328.0523986816406	1328.508911132812	-350.2510070800781	-336.9935913085938	1108.097045898438	-378.4989929199219	-428.5988464355469	1110.246826171875	-334.3167419433594	-277.2911987304688	856.7435302734375	-325.7713623046875	-317.8393249511719	839.3668823242188	-401.3971557617188	-324.1749572753906	1019.900756835938	-385.4832763671875	-317.54541015625	778.5721435546875	-392.99267578125	-269.7200927734375	777.4851684570312	-345.0516967773438	-384.3402709960938	1440.911010742188	51.37283706665039	-416.262939453125	1377.207275390625	114.2103424072266	-420.93115234375	1089.444580078125	167.0888214111328	-468.7996215820312	1069.772094726562	131.0148315429688	-280.0458984375	869.720458984375	158.4127960205078	-333.7419738769531	851.4400024414062	218.5466156005859	-410.5118103027344	1034.136962890625	177.1934967041016	-264.9260559082031	696.0922241210938	179.6915893554688	-253.0704803466797	779.5133056640625	183.4871826171875	-314.6600952148438	778.9119262695312	224.3447265625	-358.071044921875	1652.878784179688	-41.29428100585938	-170.0216522216797	1685.62158203125	-124.8020172119141	-229.4182891845703	1683.627685546875	7.114094257354736	-283.3689880371094	1654.467895507812	-189.0294036865234	-272.8096923828125	915.0006103515625	-287.8677062988281	-296.2422790527344	940.7701416015625	51.11238479614258	-217.1323394775391	944.2615356445312	-215.0521240234375	-124.3919067382812	503.3097839355469	-182.5777587890625	-169.6561737060547	655.7247924804688	-241.2652282714844	-64.15734100341797	27.1450023651123	-157.8324737548828	-105.5594635009766	250.5942535400391	-182.2784423828125	102.32958984375	77.59548950195312	-32.6013298034668	24.25873756408691	66.02458190917969	-25.0678882598877	50.13999557495117	42.80947494506836	-124.4102630615234	-148.0270385742188	29.28914833068848	-132.241455078125	-459.7488403320312	481.8133239746094	-2.39404559135437	-386.3453063964844	757.8510131835938	71.91218566894531	-691.7254028320312	68.53108978271484	-94.638916015625	-505.4501953125	344.667724609375	-34.56154251098633	-475.3877258300781	37.46471405029297	-95.55340576171875	-527.8980102539062	46.1715202331543	-144.6476135253906	-572.021484375	38.32842636108398	-49.90743255615234	-735.7591552734375	81.79566192626953	-158.7230987548828	-399.9024658203125	914.8340454101562	76.90217590332031	-298.8538513183594	686.5812377929688	-334.6363830566406	nan	nan	nan	
314	3.13	-466.8582153320312	986.6566162109375	-75.84304046630859	-431.6320190429688	985.3709716796875	-203.8724212646484	-449.0434875488281	1083.9345703125	-138.3933563232422	-215.6785125732422	1265.577026367188	-83.79898071289062	-453.9805297851562	1210.240478515625	-139.2714538574219	-402.919677734375	1481.784545898438	-109.5836868286133	-231.4175262451172	1377.33154296875	-88.39275360107422	-494.4034118652344	1359.116333007812	-40.94062805175781	-420.4908142089844	1429.599487304688	-204.6620635986328	-309.0519409179688	1452.63671875	-267.1686706542969	-318.8033752441406	1328.395629882812	-349.6461181640625	-327.2164916992188	1107.927124023438	-377.3417358398438	-419.0723571777344	1109.990844726562	-333.6152954101562	-267.4866333007812	856.6980590820312	-323.8773498535156	-307.4965515136719	839.1373901367188	-399.6597900390625	-314.2465515136719	1019.690673828125	-384.0776672363281	-307.3128051757812	778.3837890625	-391.1264038085938	-259.7373352050781	777.4155883789062	-342.9534606933594	-376.9850158691406	1441.66796875	51.65126419067383	-409.2356262207031	1378.026245117188	114.3946151733398	-414.9834899902344	1090.265258789062	167.1060943603516	-462.7232360839844	1070.718505859375	130.7982635498047	-274.8489990234375	870.0839233398438	159.9221038818359	-329.08447265625	852.0353393554688	219.6418304443359	-404.8443603515625	1034.959106445312	177.3338470458984	-260.5438842773438	696.41357421875	181.5462188720703	-248.3900756835938	779.8028564453125	185.3829193115234	-310.3910522460938	779.4513549804688	225.6675262451172	-350.1641540527344	1653.481689453125	-41.03572845458984	-161.972412109375	1686.142211914062	-124.2693252563477	-221.6058502197266	1684.191650390625	7.564296722412109	-275.2140808105469	1654.97705078125	-188.6548004150391	-263.9492797851562	916.0587158203125	-286.8279724121094	-287.6951904296875	941.0034790039062	52.19354629516602	-208.3515014648438	945.2801513671875	-213.8785247802734	-117.0092468261719	503.8622741699219	-180.8150329589844	-161.4909210205078	656.4605102539062	-239.6118469238281	-63.02267456054688	27.08498001098633	-157.5153656005859	-100.3961334228516	250.6067962646484	-180.8523254394531	104.5371246337891	72.22484588623047	-30.60487937927246	26.10553550720215	62.49465179443359	-23.84235191345215	51.84811401367188	40.24695587158203	-123.456916809082	-146.9893951416016	30.7126293182373	-131.9041595458984	-452.2562561035156	482.3142700195312	-0.8221884965896606	-377.9664001464844	758.1215209960938	72.75829315185547	-690.3955688476562	71.70720672607422	-93.58991241455078	-499.7110900878906	345.4864807128906	-33.03417205810547	-475.1610412597656	37.42663192749023	-95.49877166748047	-527.1787719726562	47.06081008911133	-144.19873046875	-571.3699951171875	38.5449333190918	-49.53432083129883	-734.18896484375	86.73641204833984	-157.4915161132812	-391.3586730957031	914.9478759765625	77.83895111083984	-288.8695373535156	686.440673828125	-332.4771118164062	nan	nan	nan	
315	3.14	-458.139892578125	987.1505126953125	-74.77798461914062	-422.9892578125	986.3716430664062	-202.8839111328125	-440.2367858886719	1084.50537109375	-137.2739562988281	-207.5451354980469	1266.320068359375	-82.68074798583984	-445.4945068359375	1210.607055664062	-138.1834716796875	-394.786865234375	1482.373168945312	-109.4907913208008	-223.4284820556641	1378.0498046875	-87.56691741943359	-486.3882751464844	1359.682739257812	-40.99195861816406	-412.0686950683594	1430.07177734375	-204.5768890380859	-300.4087524414062	1452.962768554688	-266.7174072265625	-309.5096740722656	1328.50732421875	-349.0393371582031	-317.3074645996094	1107.9794921875	-376.1658935546875	-409.3984375	1109.90869140625	-332.8981323242188	-257.412109375	856.9005737304688	-321.9908752441406	-296.9075927734375	839.1444091796875	-397.9144287109375	-304.1361694335938	1019.712707519531	-382.6564025878906	-296.804931640625	778.4230346679688	-389.2697143554688	-249.4899139404297	777.5783081054688	-340.8468627929688	-369.4665832519531	1442.630004882812	51.95248794555664	-402.0400390625	1379.061157226562	114.6306304931641	-408.968017578125	1091.291625976562	167.0950317382812	-456.5511169433594	1071.880493164062	130.4952545166016	-269.5965576171875	870.6611328125	161.3751831054688	-324.3875732421875	852.8359375	220.6588134765625	-399.1636047363281	1035.99853515625	177.4748077392578	-256.1352844238281	696.9425659179688	183.2951354980469	-243.6743927001953	780.3060302734375	187.1996765136719	-306.10302734375	780.1904296875	226.8839416503906	-342.1630859375	1654.282470703125	-40.80686187744141	-153.8326721191406	1686.809692382812	-123.76708984375	-213.6996459960938	1684.936889648438	7.97707462310791	-266.9696960449219	1655.642456054688	-188.3115997314453	-255.3394470214844	917.2069091796875	-285.7387084960938	-279.0435180664062	941.3799438476562	53.17409896850586	-199.6321716308594	946.5289306640625	-212.8258819580078	-109.539924621582	504.6425170898438	-179.1516571044922	-153.3169708251953	657.460205078125	-237.9642181396484	-62.16728591918945	27.09517478942871	-157.2779083251953	-95.49659729003906	250.7733154296875	-179.6030731201172	106.3503723144531	67.5567626953125	-28.96261405944824	27.63910293579102	59.5042724609375	-22.92494964599609	53.30652236938477	38.23045349121094	-122.8415679931641	-146.1100158691406	31.90363502502441	-131.6432037353516	-444.2944030761719	482.8487854003906	0.9182800054550171	-369.3803100585938	758.4928588867188	73.66307067871094	-688.8524169921875	75.14521026611328	-92.44593811035156	-493.5976257324219	346.38134765625	-31.32558631896973	-474.947021484375	37.41629791259766	-95.40480041503906	-526.3904418945312	47.99783325195312	-143.7535095214844	-570.6246337890625	38.80427169799805	-49.14458465576172	-732.3123168945312	92.04364776611328	-156.1328887939453	-382.6716003417969	915.1893310546875	78.79112243652344	-278.6204833984375	686.509521484375	-330.3252868652344	nan	nan	nan	
316	3.15	-449.4161376953125	987.8051147460938	-73.65080261230469	-414.39892578125	987.53564453125	-201.8403472900391	-431.3463745117188	1085.248413085938	-136.0590667724609	-199.3405914306641	1267.242919921875	-81.62566375732422	-436.9898681640625	1211.152465820312	-136.9918975830078	-386.5979919433594	1483.134643554688	-109.3502197265625	-215.3655395507812	1378.9423828125	-86.75991821289062	-478.2758178710938	1360.435791015625	-40.90630340576172	-403.6278991699219	1430.725952148438	-204.4393157958984	-291.7704772949219	1453.496704101562	-266.2526245117188	-300.1974182128906	1328.843139648438	-348.4369201660156	-307.3007507324219	1108.249267578125	-374.9838256835938	-399.6070861816406	1109.999755859375	-332.1669921875	-247.0859680175781	857.35498046875	-320.1090698242188	-286.0934753417969	839.3863525390625	-396.1604919433594	-293.8783569335938	1019.967651367188	-381.2302856445312	-286.0246887207031	778.694091796875	-387.424560546875	-238.9587860107422	777.999755859375	-338.7496643066406	-361.7806701660156	1443.780517578125	52.27906036376953	-394.6653747558594	1380.296142578125	114.924560546875	-402.8812866210938	1092.512451171875	167.0738983154297	-450.2892150878906	1073.2470703125	130.1320343017578	-264.2826538085938	871.4388427734375	162.766845703125	-319.637939453125	853.8281860351562	221.5930328369141	-393.4620361328125	1037.24169921875	177.6266174316406	-251.6806030273438	697.6683349609375	184.9183044433594	-238.9112396240234	781.0089111328125	188.9209747314453	-301.7756958007812	781.1106567382812	227.9775085449219	-334.0853881835938	1655.2646484375	-40.6031608581543	-145.6195831298828	1687.611450195312	-123.2844314575195	-205.7154388427734	1685.84765625	8.360597610473633	-258.654296875	1656.453002929688	-187.9922485351562	-247.0236206054688	918.366455078125	-284.5866088867188	-270.3091430664062	941.9033203125	54.045166015625	-190.985107421875	947.9549560546875	-211.8979187011719	-102.0748977661133	505.5705871582031	-177.5852508544922	-145.1830291748047	658.670654296875	-236.2471618652344	-61.56456756591797	27.14926528930664	-157.1045532226562	-90.92155456542969	251.0528869628906	-178.5163116455078	107.7858276367188	63.60496139526367	-27.65867233276367	28.86734962463379	57.05367279052734	-22.27389335632324	54.4939079284668	36.71770477294922	-122.5150527954102	-145.3978881835938	32.84580993652344	-131.4538421630859	-435.8240661621094	483.390869140625	2.867557287216187	-360.5892333984375	758.9766845703125	74.60886383056641	-687.07177734375	78.85863494873047	-91.19627380371094	-487.0745544433594	347.3345031738281	-29.40386772155762	-474.7488403320312	37.42866897583008	-95.27778625488281	-525.5363159179688	48.98539733886719	-143.2981262207031	-569.7816162109375	39.10031890869141	-48.74667739868164	-730.0709838867188	97.72355651855469	-154.6521606445312	-373.8541259765625	915.5651245117188	79.73326110839844	-268.0592346191406	686.8109741210938	-328.1903076171875	nan	nan	nan	
